<svg id="Layer_1" data-name="Layer 1" xmlns="http://www.w3.org/2000/svg" viewBox="0 0 448 448.01"><defs><style>.cls-1{fill:#97bbf1;}</style></defs><path class="cls-1" d="M267.88,276.17c22.35,9.58,38.8,30.81,45.12,58.26,8.13,35.28-1.12,75.24-24.82,110.2a221.79,221.79,0,0,0,90.17-46.9c-15.17-28.33-15.35-55.05-1.11-93,6.9-18.4,7.27-34,1.1-46.37-7.53-15.09-22.95-21.41-26.9-22.82H213.61C220.44,245.86,235.63,262.35,267.88,276.17Z" transform="translate(-8.73 -3.52)"/><path class="cls-1" d="M225.06,219.52l-42.9-59.29a11.81,11.81,0,0,0-16.54-2.33,12,12,0,0,0-2.33,2.33l-42.9,59.29Z" transform="translate(-8.73 -3.52)"/><path class="cls-1" d="M141.68,162.81l-25.79-34.06a14.53,14.53,0,0,0-20.46-1.86,14.94,14.94,0,0,0-1.87,1.86L24.82,219.52h75.82Z" transform="translate(-8.73 -3.52)"/><path class="cls-1" d="M280.73,160.47l-11.58-5.79a8,8,0,0,1,7.15-14.31l4.43,2.21V131.52a8,8,0,0,1,16,0v37a30.19,30.19,0,0,0,13.41,3,30.69,30.69,0,0,0,13-2.84,42.72,42.72,0,0,1-.87-54.84A37.46,37.46,0,0,1,317,95.94a8,8,0,0,1-4.12-4.81c-2.83-9.19-12.76-15.61-24.16-15.61s-21.34,6.42-24.17,15.6A8,8,0,0,1,259,96.5c-9,2.4-15,9.22-15,17a15.68,15.68,0,0,0,4,10.25,8,8,0,0,1-.59,11,20.1,20.1,0,0,0-6.66,14.63c0,12.22,11.92,22.15,26.59,22.15a30.25,30.25,0,0,0,13.41-3Z" transform="translate(-8.73 -3.52)"/><path class="cls-1" d="M365.2,171.52a40.81,40.81,0,0,0,19.53-4.82V151.8l-20.44-13.62a8,8,0,0,1,8.8-13.36l.07.05,11.57,7.71V115.52a8,8,0,1,1,16,0v17.06l11.56-7.71a8,8,0,0,1,8.87,13.31l-20.43,13.63v14.9a40.88,40.88,0,0,0,19.52,4.81c20.12,0,36.48-13.8,36.48-30.76a28.15,28.15,0,0,0-9.29-20.48,8,8,0,0,1-.58-11,22.44,22.44,0,0,0,5.63-14.66c0-11-8.42-20.66-20.94-24A8,8,0,0,1,426,65.2c-3.93-12.76-17.61-21.68-33.25-21.68S363.4,52.44,359.47,65.2a8,8,0,0,1-5.57,5.37c-12.52,3.37-20.94,13-20.94,24a22.44,22.44,0,0,0,5.63,14.66,8,8,0,0,1-.58,11,28.14,28.14,0,0,0-9.28,20.48C328.73,157.72,345.09,171.52,365.2,171.52Z" transform="translate(-8.73 -3.52)"/><path class="cls-1" d="M232.73,451.52a227.61,227.61,0,0,0,31.94-2.25c28.69-34.33,40.93-75.71,32.74-111.24-5.17-22.42-18.23-39.6-35.83-47.15-45-19.29-61.07-44.06-66.32-55.36H8.87C13.17,356.05,112.13,451.53,232.73,451.52Z" transform="translate(-8.73 -3.52)"/><path class="cls-1" d="M392.55,251c8.34,16.54,8.23,36.5-.33,59.33-10.49,28-14.15,50.13-1.65,76.12l.55-.53a222.46,222.46,0,0,0,65.47-150.4h-75.5A57.49,57.49,0,0,1,392.55,251Z" transform="translate(-8.73 -3.52)"/><path class="cls-1" d="M24.73,59.52a15.77,15.77,0,0,0,8.06-2.19,8,8,0,0,1,9.65,1.15,32,32,0,0,0,44.57,0,8,8,0,0,1,9.65-1.15,15.8,15.8,0,0,0,8.07,2.19,16,16,0,0,0,0-32,15.25,15.25,0,0,0-2.13.15,8,8,0,0,1-8.47-4.77,32,32,0,0,0-58.81,0,8,8,0,0,1-8.47,4.77,15.11,15.11,0,0,0-2.12-.15,16,16,0,0,0,0,32Z" transform="translate(-8.73 -3.52)"/><path class="cls-1" d="M232.73,35.52a8,8,0,0,1-8-8,12,12,0,0,0-1.32-4.72c-.88-1.62-2.38-3.28-6.68-3.28a8,8,0,0,1,0-16c7,0,12.24,2.28,16,5.63,3.75-3.35,9-5.63,16-5.63a8,8,0,1,1,0,16c-4.3,0-5.8,1.66-6.69,3.28a11.91,11.91,0,0,0-1.31,4.8A8,8,0,0,1,232.73,35.52Z" transform="translate(-8.73 -3.52)"/><path class="cls-1" d="M176.73,99.52a8,8,0,0,1-8-8,12,12,0,0,0-1.32-4.72c-.88-1.62-2.38-3.28-6.68-3.28a8,8,0,0,1,0-16c7,0,12.24,2.28,16,5.63,3.75-3.35,9-5.63,16-5.63a8,8,0,0,1,0,16c-4.3,0-5.8,1.66-6.69,3.28a11.91,11.91,0,0,0-1.31,4.8A8,8,0,0,1,176.73,99.52Z" transform="translate(-8.73 -3.52)"/><path class="cls-1" d="M296.73,219.52V185.6a44.75,44.75,0,0,1-8-3.22,45.36,45.36,0,0,1-8,3.22v33.92Z" transform="translate(-8.73 -3.52)"/><path class="cls-1" d="M392.73,180.6a56.08,56.08,0,0,1-8,3.57v35.35h16V184.17A55.1,55.1,0,0,1,392.73,180.6Z" transform="translate(-8.73 -3.52)"/></svg>