<?xml version="1.0" encoding="UTF-8"?>
<svg width="490px" height="368px" viewBox="0 0 490 368" xmlns="http://www.w3.org/2000/svg" xmlns:xlink="http://www.w3.org/1999/xlink" version="1.1">
 <!-- Generated by Pixelmator Pro 2.0.6 -->
 <g id="group">
  <path id="Path" d="M486.76 77.69 C483.873 73.928 479.408 71.741 474.686 71.741 L113.666 71.741 97.83 11.452 C96.08 4.714 89.955 0.077 83.041 0.077 L15.4 0.077 C6.912 0.077 0.088 6.901 0.088 15.389 0.088 23.877 6.912 30.701 15.4 30.701 L71.224 30.701 134.31 272.811 C136.06 279.635 142.185 284.272 149.185 284.272 L157.849 284.272 C153.65 292.233 151.287 301.249 151.287 310.874 151.287 342.374 176.924 368.011 208.424 368.011 239.924 368.011 265.561 342.46 265.561 310.874 265.561 301.335 263.197 292.237 258.998 284.272 L317.709 284.272 C313.51 292.233 311.147 301.249 311.147 310.874 311.147 342.374 336.784 368.011 368.284 368.011 399.784 368.011 425.421 342.46 425.421 310.874 425.421 301.335 423.057 292.237 418.858 284.272 L427.522 284.272 C434.522 284.272 440.647 279.635 442.311 272.811 L489.647 90.901 C490.616 86.354 489.651 81.452 486.764 77.69 Z M176.66 144.542 C176.66 136.054 183.484 129.23 191.972 129.23 L384.562 129.23 C392.96 129.23 399.874 136.054 399.874 144.542 399.874 152.94 392.96 159.854 384.562 159.854 L191.972 159.854 C183.484 159.854 176.66 152.94 176.66 144.542 Z M234.848 310.882 C234.848 325.495 222.95 337.394 208.336 337.394 193.723 337.394 181.734 325.496 181.734 310.882 181.734 296.268 193.632 284.28 208.336 284.28 222.945 284.28 234.848 296.268 234.848 310.882 Z M394.708 310.882 C394.708 325.495 382.81 337.394 368.106 337.394 353.493 337.394 341.504 325.496 341.504 310.882 341.504 296.268 353.402 284.28 368.106 284.28 382.81 284.28 394.708 296.268 394.708 310.882 Z" fill="#000000" fill-opacity="0.645" stroke="none"/>
 </g>
</svg>
