<svg id="Layer_1" data-name="Layer 1" xmlns="http://www.w3.org/2000/svg" viewBox="0 0 474.19 431.25"><defs><style>.cls-1{fill:#4f566b;}.cls-1,.cls-2{fill-rule:evenodd;}.cls-2{fill:#a4acb9;}.cls-3{fill:#fff;}</style></defs><path class="cls-1" d="M35.44,223.46A21.18,21.18,0,1,1,6.92,192.13L203.8,12.88a49.49,49.49,0,0,1,66.6,0l84,76.48V62.61a13.48,13.48,0,0,1,13.44-13.44h30.4a13.48,13.48,0,0,1,13.44,13.44v78.9l55.6,50.62a21.18,21.18,0,1,1-28.52,31.33L241.88,44.21a7.14,7.14,0,0,0-9.56,0Z" transform="translate(-0.01 0)"/><path class="cls-2" d="M410.26,231V403A28.34,28.34,0,0,1,382,431.25H286.6V287.35h-99v143.9H92.22A28.34,28.34,0,0,1,63.94,403V231L237.1,73.33Z" transform="translate(-0.01 0)"/><circle class="cls-3" cx="235.24" cy="195.98" r="32.99"/></svg>