<svg id="Layer_1" data-name="Layer 1" xmlns="http://www.w3.org/2000/svg" viewBox="0 0 28 32"><defs><style>.cls-1,.cls-2{fill:#4f566b;}.cls-1,.cls-3{fill-rule:evenodd;}.cls-3{fill:#a4acb9;}</style></defs><path class="cls-1" d="M15.26,10.06c4,1.08,9.27,2.51,10.54,6.51,1.47,4.66-2.9,11.49-9.18,12.82A11.64,11.64,0,0,1,3.87,23.22C1.56,18.27,3.28,11.76,7.19,9.71,9.51,8.49,12,9.16,15.26,10.06Z"/><path class="cls-2" d="M9,1a1,1,0,0,1,1-1h8a1,1,0,0,1,1,1V5a1,1,0,0,1-1,1H10A1,1,0,0,1,9,5Z"/><path class="cls-3" d="M5,2H7V6.67A1.37,1.37,0,0,0,8.4,8H19.6A1.37,1.37,0,0,0,21,6.67V2h2a5,5,0,0,1,5,5V27a5,5,0,0,1-5,5H5a5,5,0,0,1-5-5V7A5,5,0,0,1,5,2ZM8,25a1,1,0,0,0,2,0V13a1,1,0,0,0-2,0Zm6,1a1,1,0,0,1-1-1V17a1,1,0,0,1,2,0v8A1,1,0,0,1,14,26Zm5,0a1,1,0,0,1-1-1V21a1,1,0,0,1,2,0v4A1,1,0,0,1,19,26Z"/><path class="cls-3" d="M3.81,11.8"/><path class="cls-1" d="M-3,12.14"/></svg>