<?xml version="1.0" encoding="UTF-8"?>
<svg width="539px" height="412px" viewBox="0 0 539 412" xmlns="http://www.w3.org/2000/svg" xmlns:xlink="http://www.w3.org/1999/xlink" version="1.1">
 <!-- Generated by Pixelmator Pro 2.0.6 -->
 <path id="Path" d="M31.47 0.148 C13.97 0.148 -0.206 14.324 -0.206 31.824 L-0.206 95.156 C-0.206 112.656 13.97 126.832 31.47 126.832 L94.822 126.832 C112.322 126.832 126.498 112.656 126.498 95.156 126.498 112.656 140.674 126.832 158.174 126.832 L189.85 126.832 C207.35 126.832 221.526 112.656 221.526 95.156 221.526 112.656 235.702 126.832 253.202 126.832 L284.878 126.832 C302.378 126.832 316.554 112.656 316.554 95.156 316.554 112.656 330.73 126.832 348.23 126.832 L379.906 126.832 C397.406 126.832 411.582 112.656 411.582 95.156 411.582 112.656 425.758 126.832 443.258 126.832 L506.59 126.832 C524.09 126.832 538.266 112.656 538.266 95.156 L538.266 31.824 C538.266 14.324 524.09 0.148 506.59 0.148 Z M126.759 139.618 C106.04 153.372 79.247 150.083 55.638 149.454 47.814 150.661 39.572 151.028 31.454 150.243 L31.454 396.013 C31.454 404.747 38.56 411.849 47.29 411.849 L332.31 411.849 332.31 205.999 C332.31 197.265 339.396 190.163 348.146 190.163 L427.318 190.163 C436.052 190.163 443.154 197.268 443.154 205.999 L443.154 411.849 490.666 411.849 C499.4 411.849 506.502 404.743 506.502 396.013 L506.502 149.963 C502.479 150.35 498.471 150.471 494.568 150.33 467.705 147.565 437.377 156.123 412.861 140.74 406.384 141.193 399.892 147.057 392.841 148.193 367.818 150.818 339.677 154.334 317.204 140.213 311.165 142.436 304.657 146.705 297.778 148.053 272.649 150.975 244.192 154.334 221.704 139.881 207.458 149.682 189.817 149.822 173.212 150.557 157.392 150.643 139.821 149.26 126.767 139.584 Z M110.638 190.161 L253.158 190.161 C261.892 190.161 268.994 197.267 268.994 205.997 L268.994 332.677 C268.994 341.427 261.908 348.513 253.158 348.513 L110.638 348.513 C101.888 348.513 94.802 341.427 94.802 332.677 L94.802 205.997 C94.802 197.263 101.888 190.161 110.638 190.161 Z" fill="#000000" fill-opacity="0.647" stroke="none"/>
</svg>
