<svg id="Layer_1" data-name="Layer 1" xmlns="http://www.w3.org/2000/svg" viewBox="0 0 75.19 80.01"><defs><style>.cls-1{fill:#4f566b;}</style></defs><path class="cls-1" d="M41.87,0a4.94,4.94,0,0,1-.41,1.34c-4.3,5.84-4.33,13-5.85,19.62a7.65,7.65,0,0,0,.68,4c1,2.87,2.26,5.68,3.73,9.31,1.24-2.88,2.22-5.12,3.17-7.38.33-.78.51-1.63.87-2.4a17.48,17.48,0,0,0,1.2-11.13c-.65-3.55,0-7.34.1-11h.76C47,6,47.79,9.59,48.71,13.56L64.26.1l.63.65L53.51,14.3c-3.92,4.62-5.1,10.21-5.92,15.92l.64.54c3.7-3.28,8-6.11,10.93-10s4.43-8.83,6.57-13.32l.85.26C66,11.28,65.32,14.85,64.76,18H75.1l-.09.33a76,76,0,0,0-8.29,2.89,15.9,15.9,0,0,0-4.38,3.57,29,29,0,0,0-2.41,3.6c-2.16,3.13-2.12,3,1.31,4.85,4.41,2.36,8.89,3.8,13.95,2-3.6,2.79-7.27,4.68-11.88,2.83-2.36-1-4.89-1.52-7.27-2.45-1.57-.62-2.79-.57-3.84.84-.14.19-.44.25-.64.4C47.26,40.26,45.23,44,46.87,50c1.73,6.35,2,13.14,2.45,19.77.22,3.4.91,6,4.3,7.28.46.18.89.45,1.34.68l-.51.8-9.57-1.77V80a15.42,15.42,0,0,1-3.11-1.94c-1.55-1.61-2.76-1.79-4,.29-.18.33-.62.5-1.2.94,0-2.86-1.74-2.88-3.7-2.6a43.61,43.61,0,0,1-7.4.48A11.27,11.27,0,0,1,28,75.73c5.06-1.41,6.46-5.55,7.56-9.94.55-2.23,1.12-4.46,1.65-6.69,1-4.17-.75-7.9-2-11.64-.6-1.75-2.21-2-3.74-.63-4.91,4.28-11.21,3.86-17,5.12,4-3.38,10.09-3.14,13.5-8.49-4.88-1.82-7.91-7.68-14.34-5.77-3.18,1-6.29,2.15-9.43,3.22a2.82,2.82,0,0,1-1.9,0l6.68-4L0,31.27l.29-.7c3.09.64,6.19,1.29,9.29,1.91a6,6,0,0,0,2.51.3c5.09-1.41,9.24,1.08,13.54,3,2.38,1.09,4.83,2,8,3.35-.51-2.28-.75-4-1.27-5.58-.87-2.68-1.85-5.33-2.94-7.92a3,3,0,0,0-1.83-1.4c-4.4-1-8.83-1.94-13.25-2.89l-.92-.2v-.7H28.14C25,15.29,22.48,10.63,19.28,6.53c-1.12-1.44-4-1.53-6.1-2.17A16.59,16.59,0,0,1,9.37,3c3.43,0,6.86-.1,10.28.08.73,0,1.58.92,2.09,1.61,2.63,3.56,5.15,7.18,7.73,10.76a18.14,18.14,0,0,0,1.45,1.66C34.74,11.38,35,3.69,41.87,0Z"/></svg>