<svg xmlns="http://www.w3.org/2000/svg" viewBox="0 0 94.21 95.1"><defs><style>.cls-1{fill:#97bbf1;}</style></defs><g id="Layer_1" data-name="Layer 1"><path class="cls-1" d="M84.81,39.9a69.66,69.66,0,0,1-3.4,8.2c.9,2.2.8,5-.8,8.2a15,15,0,0,1-1.5,2.3,70.82,70.82,0,0,1-5.6,6.5c-.1.2-.3.3-.4.5a1.66,1.66,0,0,1-2.1.3,1.57,1.57,0,0,1-.3-2.4c.2-.2.3-.4.5-.6,2.8-3.1,5.5-6,6.6-8.2,2.1-4.1.7-6.9-1.3-8-1.7-1-4-1-5.2.9a93.84,93.84,0,0,1-6.7,8.3,69.29,69.29,0,0,0-7.1,9.1c-1.8,2.9-4,10-4.4,17.3-.2,3.6-.3,7.7-.4,10.2A2.26,2.26,0,0,0,55,94.8h14.5a2.33,2.33,0,0,0,2.3-2.3V88.4a3.13,3.13,0,0,1,1.3-2.5,78.36,78.36,0,0,0,12.7-11c5.9-6.9,8.1-27.4,8.4-33.4C94.31,35.6,86.51,34.2,84.81,39.9Z"/><path class="cls-1" d="M36.51,65.1a69.29,69.29,0,0,0-7.1-9.1,81.27,81.27,0,0,1-6.7-8.3,3.74,3.74,0,0,0-5.2-.9c-2,1.2-3.4,3.9-1.3,8,1.1,2.2,3.8,5.1,6.6,8.2.2.2.3.4.5.6A1.64,1.64,0,0,1,23,66a1.83,1.83,0,0,1-2.1-.3,1.76,1.76,0,0,1-.4-.5,70.82,70.82,0,0,1-5.6-6.5,22.22,22.22,0,0,1-1.5-2.3c-1.6-3.2-1.7-6-.8-8.2A69.66,69.66,0,0,1,9.21,40c-1.8-5.7-9.5-4.3-9.2,1.8s2.5,26.5,8.4,33.4a73.76,73.76,0,0,0,12.7,11,3.13,3.13,0,0,1,1.3,2.5v4.1a2.33,2.33,0,0,0,2.3,2.3h14.5a2.26,2.26,0,0,0,2.3-2.3c-.1-2.5-.2-6.6-.4-10.2C40.51,75.1,38.21,68.1,36.51,65.1Z"/><path class="cls-1" d="M16.21,29.6h2.3v2.3a2.1,2.1,0,0,0,4.2,0V29.6h2.2A2.05,2.05,0,0,0,27,27.5h0a2.05,2.05,0,0,0-2.1-2.1h-2.3V23.1a2.1,2.1,0,1,0-4.2,0v2.3h-2.3A2.05,2.05,0,0,0,14,27.5h0A2.27,2.27,0,0,0,16.21,29.6Z"/><path class="cls-1" d="M27.91,8.5h2.3v2.3a2.1,2.1,0,0,0,4.2,0V8.5h2.3a2.05,2.05,0,0,0,2.1-2.1h0a2.05,2.05,0,0,0-2.1-2.1h-2.3V2.1a2.1,2.1,0,1,0-4.2,0V4.4h-2.3a2.05,2.05,0,0,0-2.1,2.1h0A2,2,0,0,0,27.91,8.5Z"/><path class="cls-1" d="M70.11,28v2.3h-2.3a2.05,2.05,0,0,0-2.1,2.1h0a2.05,2.05,0,0,0,2.1,2.1h2.3v2.3a2.1,2.1,0,0,0,4.2,0V34.5h2.3a2.05,2.05,0,0,0,2.1-2.1h0a2.05,2.05,0,0,0-2.1-2.1h-2.3V28a2.1,2.1,0,0,0-4.2,0Z"/><path class="cls-1" d="M60.81,12.8h2.3v2.3a2.1,2.1,0,1,0,4.2,0V12.8h2.3a2.05,2.05,0,0,0,2.1-2.1h0a2.05,2.05,0,0,0-2.1-2.1h-2.3V6.4a2.1,2.1,0,0,0-4.2,0V8.7h-2.3a2.05,2.05,0,0,0-2.1,2.1h0A2.09,2.09,0,0,0,60.81,12.8Z"/><path class="cls-1" d="M59.21,42a11,11,0,0,0-10.8-12h-3.1a3.21,3.21,0,0,1-2.2-1,2.69,2.69,0,0,1-.7-2.3,3.08,3.08,0,0,1,3.2-2.6h3.6a1.81,1.81,0,0,1,1.7,1.4,1.93,1.93,0,0,0,1.9,1.5h4.1a1.82,1.82,0,0,0,1.4-.6,1.87,1.87,0,0,0,.5-1.4,9.66,9.66,0,0,0-7.9-8.5V13.4A1.9,1.9,0,0,0,49,11.5h-4.1A1.9,1.9,0,0,0,43,13.4v3.1a10.87,10.87,0,0,0-8.4,11.7c.5,5.5,5.5,9.8,11.2,9.8h2.6a3.21,3.21,0,0,1,2.2,1,2.69,2.69,0,0,1,.7,2.3,3.08,3.08,0,0,1-3.2,2.6h-3.6a1.81,1.81,0,0,1-1.7-1.4,1.93,1.93,0,0,0-1.9-1.5h-4.1a1.82,1.82,0,0,0-1.4.6,1.87,1.87,0,0,0-.5,1.4,9.66,9.66,0,0,0,7.9,8.5v3.1a1.9,1.9,0,0,0,1.9,1.9h4.2a1.9,1.9,0,0,0,1.9-1.9V51.3A10.71,10.71,0,0,0,59.21,42Z"/></g></svg>